# xmcd
#
# Track frame offsets:
#	150
#	49020
#	103257
#	142207
#
# Disc length: 2714 seconds
#
# Revision: 1
# Processed by: cddbd v1.5.1PL0 Copyright (c) Steve Scherf et al.
# Submitted via: CDex 1.50Beta5
#
DISCID=390a9804
DTITLE=Various Artist - Daydream in the Grone
DYEAR=1900
DGENRE=Relaxing
TTITLE0=風香る時
TTITLE1=Green Air
TTITLE2=森の精
TTITLE3=雲と風
EXTD=
EXTT0=
EXTT1=
EXTT2=
EXTT3=
PLAYORDER=
